# xmcd
#
# Track frame offsets:
#	150
#	19200
#	39112
#	56257
#	75413
#	93613
#	118728
#	141866
#	167854
#	184842
#	203222
#	218843
#	236271
#	250015
#	266785
#	281817
#	295117
#	316957
#	331808
#
# Disc length: 4654 seconds
#
# Revision: 1
# Processed by: cddbd v1.5.1PL0 Copyright (c) Steve Scherf et al.
# Submitted via: EasyCDDAExtractor 7.1.0.1
#
DISCID=0f122c13
DTITLE=Patricia Kaas - Francaise Chansone
DYEAR=2001
DGENRE=
TTITLE0=Mon Mec A Moi
TTITLE1=D'allemagne
TTITLE2=Mademoiselle Chante Le Blues
TTITLE3=Des Mensonges En Musique
TTITLE4=Elle Voulalt Jouier Cabaret
TTITLE5=Hotel Normandy
TTITLE6=Ceux Quin'ont Rien
TTITLE7=It's A Man's World
TTITLE8=Les Hommes Qui Passent
TTITLE9=La Liberte
TTITLE10=Regarde Les Riches
TTITLE11=Venus Des Abribus
TTITLE12=L'Enterrement De Sidney Bechet
TTITLE13=Quand Jimmy Oit
TTITLE14=Jojo
TTITLE15=Une Derniere Semaine A New  York
TTITLE16=J'attends De Nous
TTITLE17=Kennedy Rose
TTITLE18=Les Mannequins D'osier (live)
EXTD=
EXTT0=
EXTT1=
EXTT2=
EXTT3=
EXTT4=
EXTT5=
EXTT6=
EXTT7=
EXTT8=
EXTT9=
EXTT10=
EXTT11=
EXTT12=
EXTT13=
EXTT14=
EXTT15=
EXTT16=
EXTT17=
EXTT18=
PLAYORDER=
